<?xml version="1.0" encoding="utf-8"?>
<svg id="master-artboard" viewBox="0 0 1400 980" version="1.1" xmlns="http://www.w3.org/2000/svg" x="0px" y="0px" style="enable-background:new 0 0 1400 980;" width="1400px" height="980px"><defs><path id="text-path-0" d="M 778.8464965820312 213.4612274169922 A 100 18 0 0 1 988.3533935546875 213.4612274169922 A 100 18 0 0 1 778.8464965820312 213.4612274169922 Z" style="fill: none; stroke: red; stroke-width: 2;"/><path id="text-path-1" d="M 664.5464477539062 37.96122741699219 A 100 19 0 0 1 876.5812377929688 37.96122741699219 A 100 19 0 0 1 664.5464477539062 37.96122741699219" style="fill: none; stroke: red; stroke-width: 2;"/><path id="text-path-2" d="M 765.3650512695312 211.70851135253906 A 100 17 0 0 1 991.5017700195312 211.70851135253906 A 100 17 0 0 1 765.3650512695312 211.70851135253906" style="fill: none; stroke: red; stroke-width: 2;"/><path id="path-1" d="M 765.3650512695312 211.70851135253906 A 100 17 0 0 1 991.5017700195312 211.70851135253906 A 100 17 0 0 1 765.3650512695312 211.70851135253906" style="fill: none; stroke: red; stroke-width: 2;"/><style id="ee-google-fonts">@import url(https://fonts.googleapis.com/css?family=Capriola:400);</style></defs><rect id="ee-background" x="0" y="0" width="1400" height="980" style="fill: white; fill-opacity: 1; pointer-events: none;"/>


<path d="M 256.3710632324219 499.73345947265625 L 263.42108154296875 498.7834777832031 C 264.69439697265625 498.7834777832031 265.5943908691406 499.2134704589844 266.1210632324219 500.073486328125 C 266.64105224609375 500.94012451171875 267.0277404785156 501.86346435546875 267.28106689453125 502.8434753417969 C 267.5277404785156 503.823486328125 267.7677307128906 504.70013427734375 268.0010681152344 505.4734802246094 C 268.22772216796875 506.25347900390625 268.341064453125 507.0968017578125 268.341064453125 508.00347900390625 C 268.341064453125 508.91680908203125 267.8944091796875 509.84014892578125 267.0010681152344 510.7734680175781 C 266.1144104003906 511.7068176269531 264.98773193359375 512.5401611328125 263.6210632324219 513.2734985351562 C 260.7077331542969 514.8201293945312 257.6643981933594 515.5934448242188 254.49105834960938 515.5934448242188 C 251.32440185546875 515.5934448242188 248.46774291992188 515.2301635742188 245.9210662841797 514.5034790039062 C 243.36773681640625 513.7701416015625 240.95106506347656 512.7667846679688 238.6710662841797 511.49346923828125 C 235.11773681640625 509.48681640625 231.48440551757812 506.6601257324219 227.77105712890625 503.0134582519531 C 224.0510711669922 499.37347412109375 221.0977325439453 496.25347900390625 218.91107177734375 493.6534729003906 L 207.63107299804688 479.7034606933594 C 206.03773498535156 477.7901306152344 204.60440063476562 476.2401428222656 203.33106994628906 475.053466796875 L 203.33106994628906 510.12347412109375 C 203.33106994628906 511.95013427734375 202.7144012451172 513.2501220703125 201.48106384277344 514.0234985351562 C 201.02774047851562 514.2968139648438 200.50439453125 514.4334716796875 199.91107177734375 514.4334716796875 L 190.13107299804688 514.4334716796875 C 188.90440368652344 514.4334716796875 188.0410614013672 514.0701293945312 187.5410614013672 513.3434448242188 C 186.7210693359375 512.1567993164062 186.31106567382812 511.0834655761719 186.31106567382812 510.12347412109375 L 186.31106567382812 415.6534729003906 C 186.31106567382812 414.06011962890625 186.73106384277344 412.66015625 187.57106018066406 411.4534606933594 C 188.417724609375 410.2467956542969 189.7977294921875 409.6434631347656 191.7110595703125 409.6434631347656 L 222.19107055664062 409.6434631347656 C 249.31106567382812 409.6434631347656 262.8710632324219 420.3501281738281 262.8710632324219 441.76348876953125 C 262.8710632324219 451.6101379394531 259.2243957519531 459.88348388671875 251.93106079101562 466.5834655761719 C 245.05105590820312 472.91680908203125 236.94107055664062 476.0834655761719 227.60107421875 476.0834655761719 C 225.95440673828125 476.0834655761719 224.38107299804688 475.97015380859375 222.88107299804688 475.74346923828125 L 231.2910614013672 484.63348388671875 C 236.11773681640625 489.6867980957031 239.8777313232422 493.1034851074219 242.57107543945312 494.88348388671875 C 247.39773559570312 498.1167907714844 251.99774169921875 499.73345947265625 256.3710632324219 499.73345947265625 M 203.33106994628906 462.00347900390625 C 208.4777374267578 463.19012451171875 213.13772583007812 463.7834777832031 217.31106567382812 463.7834777832031 C 221.4777374267578 463.7834777832031 225.20106506347656 463.3934631347656 228.48106384277344 462.61346435546875 C 231.76773071289062 461.84014892578125 234.6844024658203 460.6101379394531 237.23106384277344 458.9234619140625 C 242.8843994140625 455.27679443359375 245.7110595703125 449.8768005371094 245.7110595703125 442.7234802246094 C 245.7110595703125 436.29681396484375 243.27439880371094 431.5334777832031 238.40106201171875 428.4334716796875 C 234.29440307617188 425.84014892578125 228.73440551757812 424.54345703125 221.7210693359375 424.54345703125 L 203.33106994628906 424.54345703125 L 203.33106994628906 462.00347900390625 ZM 354.68060302734375 510.8134765625 C 354.68060302734375 513.226806640625 353.4972839355469 514.4334716796875 351.130615234375 514.4334716796875 L 344.4906005859375 514.4334716796875 C 342.71728515625 514.4334716796875 341.64727783203125 514.0801391601562 341.2806091308594 513.3734741210938 C 340.9139404296875 512.6668090820312 340.71063232421875 512.0301513671875 340.6706237792969 511.4634704589844 C 340.62396240234375 510.89013671875 340.5306091308594 510.1934814453125 340.390625 509.37347412109375 C 340.1172790527344 507.14013671875 339.7306213378906 504.726806640625 339.2306213378906 502.13348388671875 C 335.6772766113281 508.64678955078125 330.09393310546875 512.9534912109375 322.4806213378906 515.053466796875 C 319.7939453125 515.7801513671875 316.8339538574219 516.1434936523438 313.6006164550781 516.1434936523438 C 310.3606262207031 516.1434936523438 307.12396240234375 515.6068115234375 303.890625 514.533447265625 C 300.65728759765625 513.466796875 297.78729248046875 511.88348388671875 295.2806091308594 509.7834777832031 C 289.6272888183594 505.04345703125 286.8006286621094 498.823486328125 286.8006286621094 491.12347412109375 C 286.8006286621094 482.69012451171875 289.9006042480469 476.2401428222656 296.1006164550781 471.7734680175781 C 301.20062255859375 468.1734619140625 307.7606201171875 466.37347412109375 315.7806091308594 466.37347412109375 C 323.8006286621094 466.37347412109375 330.5906066894531 468.72015380859375 336.1506042480469 473.4134826660156 C 336.2906188964844 471.8668212890625 336.3606262207031 469.9301452636719 336.3606262207031 467.60345458984375 C 336.3606262207031 465.2834777832031 335.9039611816406 462.96014404296875 334.9906005859375 460.63348388671875 C 334.0839538574219 458.3067932128906 332.78729248046875 456.3701477050781 331.1006164550781 454.823486328125 C 327.6339416503906 451.7701416015625 322.8006286621094 450.24346923828125 316.6006164550781 450.24346923828125 C 311.0406188964844 450.24346923828125 305.390625 451.7701416015625 299.6506042480469 454.823486328125 C 298.5572814941406 455.41680908203125 297.6006164550781 455.7134704589844 296.7806091308594 455.7134704589844 C 295.5472717285156 455.7134704589844 294.36395263671875 454.5068054199219 293.2306213378906 452.0934753417969 C 291.9972839355469 449.6268005371094 291.380615234375 447.8468017578125 291.380615234375 446.75347900390625 C 291.380615234375 444.75347900390625 292.8839416503906 442.8168029785156 295.890625 440.9434814453125 C 301.630615234375 437.39013671875 309.31060791015625 435.61346435546875 318.93060302734375 435.61346435546875 C 327.6772766113281 435.61346435546875 334.9239501953125 438.0068054199219 340.6706237792969 442.79345703125 C 347.457275390625 448.5334777832031 350.8506164550781 456.64678955078125 350.8506164550781 467.13348388671875 C 350.8506164550781 471.7801513671875 350.1006164550781 477.63348388671875 348.6006164550781 484.6934814453125 C 352.47393798828125 495.726806640625 354.5006103515625 504.4334716796875 354.68060302734375 510.8134765625 M 308.880615234375 481.79345703125 C 308.880615234375 481.79345703125 308.4139404296875 482.14013671875 307.4806213378906 482.8334655761719 C 306.5472717285156 483.52679443359375 305.68060302734375 484.5567932128906 304.880615234375 485.9234619140625 C 304.08062744140625 487.2901306152344 303.68060302734375 488.89678955078125 303.68060302734375 490.74346923828125 C 303.68060302734375 492.59014892578125 304.0139465332031 494.23345947265625 304.68060302734375 495.6734619140625 C 305.3406066894531 497.1068115234375 306.2606201171875 498.3001403808594 307.44061279296875 499.25347900390625 C 309.9472961425781 501.2134704589844 312.7639465332031 502.1934814453125 315.890625 502.1934814453125 C 319.0106201171875 502.1934814453125 321.5739440917969 501.83013916015625 323.58062744140625 501.1034851074219 C 325.58062744140625 500.3768005371094 327.31060791015625 499.4434814453125 328.7706298828125 498.303466796875 C 331.91729736328125 495.8434753417969 333.4906005859375 493.24346923828125 333.4906005859375 490.50347900390625 C 333.21728515625 487.09014892578125 331.3239440917969 484.4034729003906 327.81060791015625 482.4434814453125 C 324.6706237792969 480.6168212890625 320.957275390625 479.7034606933594 316.6706237792969 479.7034606933594 C 313.34393310546875 479.7034606933594 310.7472839355469 480.400146484375 308.880615234375 481.79345703125 ZM 436.8641357421875 500.48345947265625 L 442.6041259765625 499.3934631347656 C 444.19744873046875 499.3934631347656 445.2008056640625 500.4634704589844 445.6141357421875 502.6034851074219 L 446.5741271972656 507.5334777832031 C 446.6141357421875 507.7601318359375 446.6341247558594 508.2501525878906 446.6341247558594 509.00347900390625 C 446.6341247558594 509.7501525878906 446.3507995605469 510.5567932128906 445.78411865234375 511.4234619140625 C 445.2107849121094 512.2901611328125 444.44744873046875 513.0201416015625 443.494140625 513.6134643554688 C 441.3941345214844 514.9334716796875 438.72747802734375 515.5934448242188 435.494140625 515.5934448242188 C 429.0674743652344 515.5934448242188 423.714111328125 512.4734497070312 419.43414306640625 506.23345947265625 C 418.65411376953125 505.1801452636719 417.7874755859375 503.8134765625 416.8341369628906 502.13348388671875 L 407.40411376953125 485.4534606933594 L 403.29412841796875 491.053466796875 C 397.6941223144531 498.94012451171875 394.3241271972656 505.25347900390625 393.18414306640625 509.99346923828125 C 392.8641357421875 511.2201232910156 392.4174499511719 512.2667846679688 391.8441162109375 513.1334838867188 C 391.2774658203125 514.0001220703125 390.2874755859375 514.4334716796875 388.8741149902344 514.4334716796875 L 383.40411376953125 514.4334716796875 C 382.40411376953125 514.4334716796875 381.55078125 514.0134887695312 380.8441162109375 513.1734619140625 C 380.137451171875 512.3267822265625 379.78411865234375 511.2668151855469 379.78411865234375 509.99346923828125 L 379.78411865234375 397.54345703125 C 379.78411865234375 396.31011962890625 380.137451171875 395.2834777832031 380.8441162109375 394.4634704589844 C 381.55078125 393.6434631347656 382.40411376953125 393.23345947265625 383.40411376953125 393.23345947265625 L 392.8341369628906 393.23345947265625 C 393.887451171875 393.23345947265625 394.7541198730469 393.6434631347656 395.43414306640625 394.4634704589844 C 396.12078857421875 395.2834777832031 396.4641418457031 396.31011962890625 396.4641418457031 397.54345703125 L 396.66412353515625 455.1634826660156 C 396.66412353515625 460.17681884765625 396.2674560546875 465.98681640625 395.47412109375 472.5934753417969 C 394.67413330078125 479.2068176269531 394.1607971191406 483.53680419921875 393.93414306640625 485.5834655761719 L 393.93414306640625 485.86346435546875 C 393.93414306640625 486.2234802246094 394.0241394042969 486.4034729003906 394.2041320800781 486.4034729003906 C 394.6174621582031 486.4034729003906 395.16412353515625 485.8134765625 395.8441162109375 484.63348388671875 C 404.9174499511719 468.1801452636719 416.2874755859375 452.4801330566406 429.9541320800781 437.5334777832031 C 431.2807922363281 436.1201477050781 432.5141296386719 435.4134826660156 433.65411376953125 435.4134826660156 C 435.38079833984375 435.4134826660156 436.9274597167969 436.14013671875 438.29412841796875 437.5934753417969 L 441.3741455078125 441.01348876953125 C 442.88079833984375 442.84014892578125 443.6341247558594 444.1867980957031 443.6341247558594 445.053466796875 C 443.7207946777344 446.6001281738281 443.1274719238281 447.966796875 441.8541259765625 449.1534729003906 L 429.54412841796875 461.25347900390625 C 425.3507995605469 465.5334777832031 421.3641357421875 470.0201416015625 417.5841369628906 474.7134704589844 L 422.714111328125 483.5334777832031 C 429.1874694824219 494.8334655761719 433.90411376953125 500.48345947265625 436.8641357421875 500.48345947265625 ZM 477.6048278808594 479.6434631347656 L 477.5348205566406 480.9334716796875 C 477.5348205566406 487.1801452636719 479.5181579589844 492.1934814453125 483.4848327636719 495.9734802246094 C 487.6315002441406 499.98681640625 493.2615051269531 501.99346923828125 500.37481689453125 501.99346923828125 C 506.84149169921875 501.99346923828125 512.8548583984375 500.0567932128906 518.4148559570312 496.1834716796875 C 519.4681396484375 495.45013427734375 520.4048461914062 495.0834655761719 521.224853515625 495.0834655761719 C 522.9114990234375 495.0834655761719 524.184814453125 495.92681884765625 525.0447998046875 497.61346435546875 L 526.8948364257812 501.4434814453125 C 527.301513671875 502.3568115234375 527.5048217773438 503.3367919921875 527.5048217773438 504.38348388671875 C 527.5048217773438 505.4301452636719 527.0381469726562 506.5134582519531 526.1048583984375 507.63348388671875 C 525.1715087890625 508.7467956542969 523.954833984375 509.7601318359375 522.454833984375 510.6734619140625 C 520.9481811523438 511.5867919921875 519.204833984375 512.3834838867188 517.224853515625 513.0634765625 C 515.2381591796875 513.7501220703125 513.1981811523438 514.3201293945312 511.1048278808594 514.7734985351562 C 506.9114990234375 515.6868286132812 502.5348205566406 516.1434936523438 497.9748229980469 516.1434936523438 C 493.4215087890625 516.1434936523438 488.83148193359375 515.2767944335938 484.204833984375 513.54345703125 C 479.5781555175781 511.8101501464844 475.5781555175781 509.2801513671875 472.204833984375 505.9534606933594 C 464.9581604003906 498.8934631347656 461.3348388671875 489.3468017578125 461.3348388671875 477.3134765625 C 461.3348388671875 456.2134704589844 468.76483154296875 443.09014892578125 483.62481689453125 437.9434814453125 C 488.271484375 436.3434753417969 493.0448303222656 435.54345703125 497.94482421875 435.54345703125 C 502.8448181152344 435.54345703125 507.01483154296875 436.07012939453125 510.454833984375 437.12347412109375 C 513.8948364257812 438.1701354980469 516.8681640625 439.716796875 519.3748168945312 441.76348876953125 C 524.6614990234375 446.0968017578125 527.3048095703125 452.1368103027344 527.3048095703125 459.88348388671875 C 527.3048095703125 467.4967956542969 524.204833984375 473.3067932128906 518.0048217773438 477.3134765625 C 512.5848388671875 480.82012939453125 505.4314880371094 482.573486328125 496.5448303222656 482.573486328125 C 491.0715026855469 482.573486328125 484.7581787109375 481.5968017578125 477.6048278808594 479.6434631347656 M 511.2448425292969 459.6734619140625 C 511.2448425292969 453.1601257324219 506.8681640625 449.9034729003906 498.1148376464844 449.9034729003906 C 489.77484130859375 449.9034729003906 483.9414978027344 452.9568176269531 480.6148376464844 459.0634765625 C 479.42816162109375 461.2034606933594 478.65484619140625 463.8468017578125 478.2948303222656 466.99346923828125 C 482.21484375 468.9534606933594 487.204833984375 469.9334716796875 493.26483154296875 469.9334716796875 C 505.2514953613281 469.9334716796875 511.2448425292969 466.51348876953125 511.2448425292969 459.6734619140625 ZM 574.2083740234375 502.13348388671875 C 582.961669921875 502.13348388671875 587.3383178710938 499.1934814453125 587.3383178710938 493.3134765625 C 587.3383178710938 490.073486328125 584.85498046875 487.3367919921875 579.8883666992188 485.1034851074219 C 577.788330078125 484.150146484375 575.4983520507812 483.2634582519531 573.018310546875 482.4434814453125 C 570.5316772460938 481.62347412109375 568.1483154296875 480.6434631347656 565.8683471679688 479.50347900390625 C 563.5950317382812 478.36346435546875 561.4650268554688 477.1201477050781 559.4783325195312 475.7734680175781 C 557.4983520507812 474.4334716796875 555.7783203125 472.89678955078125 554.318359375 471.1634826660156 C 551.3116455078125 467.5168151855469 549.808349609375 462.89013671875 549.808349609375 457.2834777832031 C 549.808349609375 450.45013427734375 552.6583251953125 445.02679443359375 558.3583374023438 441.01348876953125 C 563.4116821289062 437.4134826660156 569.6316528320312 435.61346435546875 577.018310546875 435.61346435546875 C 584.9450073242188 435.61346435546875 591.5750122070312 437.1634826660156 596.9083251953125 440.26348876953125 C 598.7283325195312 441.3568115234375 599.6383666992188 442.6101379394531 599.6383666992188 444.0234680175781 C 599.6383666992188 446.0301513671875 599.10498046875 448.2301330566406 598.038330078125 450.62347412109375 C 596.9650268554688 453.0168151855469 595.711669921875 454.2134704589844 594.2783203125 454.2134704589844 C 592.8383178710938 454.2134704589844 591.538330078125 453.91680908203125 590.3783569335938 453.323486328125 C 589.2183227539062 452.7301330566406 588.1716918945312 452.216796875 587.2383422851562 451.7834777832031 C 586.3049926757812 451.3501281738281 585.3116455078125 450.9967956542969 584.2583618164062 450.7234802246094 C 581.9849853515625 450.03680419921875 579.8783569335938 449.6934814453125 577.9383544921875 449.6934814453125 C 575.9983520507812 449.6934814453125 574.4383544921875 449.83013916015625 573.2583618164062 450.10345458984375 C 572.0716552734375 450.3768005371094 570.9983520507812 450.8101501464844 570.038330078125 451.4034729003906 C 567.7183227539062 452.8168029785156 566.558349609375 454.5501403808594 566.558349609375 456.60345458984375 C 566.558349609375 458.650146484375 567.0250244140625 460.22015380859375 567.9583129882812 461.3134765625 C 568.8916625976562 462.4134826660156 570.1783447265625 463.41680908203125 571.818359375 464.323486328125 C 573.4583740234375 465.23681640625 575.4183349609375 466.150146484375 577.6983642578125 467.0634765625 L 585.078369140625 470.13348388671875 C 591.0516967773438 472.73345947265625 595.0850219726562 475.08013916015625 597.1783447265625 477.1734619140625 C 601.2850341796875 481.3668212890625 603.3383178710938 486.22015380859375 603.3383178710938 491.73345947265625 C 603.3383178710938 498.66680908203125 600.9683227539062 504.36346435546875 596.2283325195312 508.823486328125 C 590.9883422851562 513.7034912109375 583.5350341796875 516.1434936523438 573.8683471679688 516.1434936523438 C 564.0750122070312 516.1434936523438 556.7150268554688 514.2534790039062 551.788330078125 510.4734802246094 C 549.375 508.64678955078125 548.1683349609375 507.00347900390625 548.1683349609375 505.54345703125 C 548.1683349609375 504.09014892578125 548.4317016601562 502.7801513671875 548.9583129882812 501.61346435546875 C 549.4783325195312 500.4534606933594 550.1616821289062 499.0867919921875 551.0083618164062 497.5134582519531 C 551.8483276367188 495.94012451171875 552.9849853515625 495.1534729003906 554.4183349609375 495.1534729003906 C 555.8583374023438 495.1534729003906 557.385009765625 495.803466796875 558.9983520507812 497.1034851074219 C 560.6183471679688 498.4034729003906 562.8416748046875 499.5668029785156 565.6683349609375 500.5934753417969 C 568.4949951171875 501.6201477050781 571.3416748046875 502.13348388671875 574.2083740234375 502.13348388671875 ZM 629.8660888671875 397.54345703125 C 629.8660888671875 396.31011962890625 630.2194213867188 395.2834777832031 630.9260864257812 394.4634704589844 C 631.6327514648438 393.6434631347656 632.486083984375 393.23345947265625 633.486083984375 393.23345947265625 L 642.8560791015625 393.23345947265625 C 643.9027709960938 393.23345947265625 644.76611328125 393.6434631347656 645.4461059570312 394.4634704589844 C 646.1327514648438 395.2834777832031 646.47607421875 396.31011962890625 646.47607421875 397.54345703125 L 646.47607421875 449.2834777832031 C 650.3960571289062 442.630126953125 656.1627197265625 438.3701477050781 663.7760620117188 436.50347900390625 C 666.1893920898438 435.91015625 669.2527465820312 435.61346435546875 672.966064453125 435.61346435546875 C 676.679443359375 435.61346435546875 680.1527709960938 436.4234619140625 683.3861083984375 438.04345703125 C 686.6260986328125 439.6634826660156 689.2027587890625 441.88348388671875 691.1160888671875 444.7034606933594 C 694.5360717773438 449.8568115234375 696.24609375 457.4468078613281 696.24609375 467.4734802246094 L 696.24609375 509.9234619140625 C 696.24609375 511.2901306152344 695.8360595703125 512.3834838867188 695.01611328125 513.2034912109375 C 694.1893920898438 514.0234985351562 692.9794311523438 514.4334716796875 691.3861083984375 514.4334716796875 L 684.6860961914062 514.4334716796875 C 682.9594116210938 514.4334716796875 681.6860961914062 514.0001220703125 680.8660888671875 513.1334838867188 C 680.0394287109375 512.2667846679688 679.6260986328125 511.1968078613281 679.6260986328125 509.9234619140625 L 679.6260986328125 467.4034729003906 C 679.6260986328125 455.73681640625 675.3427734375 449.9034729003906 666.7760620117188 449.9034729003906 C 661.99609375 449.9034729003906 657.486083984375 452.0001220703125 653.24609375 456.1934814453125 C 648.7327270507812 460.7467956542969 646.47607421875 465.98681640625 646.47607421875 471.9134826660156 L 646.47607421875 509.9234619140625 C 646.47607421875 511.1968078613281 646.0894165039062 512.2667846679688 645.3161010742188 513.1334838867188 C 644.542724609375 514.0001220703125 643.2894287109375 514.4334716796875 641.5560913085938 514.4334716796875 L 634.1060791015625 514.4334716796875 C 632.7794189453125 514.4334716796875 631.7427368164062 514.0001220703125 630.99609375 513.1334838867188 C 630.2427368164062 512.2667846679688 629.8660888671875 511.1968078613281 629.8660888671875 509.9234619140625 L 629.8660888671875 397.54345703125 ZM 761.0654296875 503.6634826660156 C 761.0654296875 503.6634826660156 761.0654296875 503.2601318359375 761.0654296875 502.4534606933594 C 761.0654296875 501.64678955078125 761.7254028320312 500.1268005371094 763.04541015625 497.8934631347656 C 764.3654174804688 495.6601257324219 765.2554321289062 494.29345703125 765.7153930664062 493.79345703125 C 766.6287231445312 492.6934814453125 767.5520629882812 492.1434631347656 768.4854125976562 492.1434631347656 C 769.4187622070312 492.1434631347656 770.4087524414062 492.44012451171875 771.4553833007812 493.0334777832031 C 772.5020751953125 493.6268005371094 773.902099609375 494.3701477050781 775.6553955078125 495.2634582519531 C 777.4154052734375 496.150146484375 779.29541015625 496.9801330566406 781.29541015625 497.75347900390625 C 785.7620849609375 499.44012451171875 789.6720581054688 500.2834777832031 793.025390625 500.2834777832031 C 796.3720703125 500.2834777832031 799.0953979492188 499.98681640625 801.1954345703125 499.3934631347656 C 803.2887573242188 498.8001403808594 805.0887451171875 497.9101257324219 806.5953979492188 496.7234802246094 C 809.6954345703125 494.2234802246094 811.2454223632812 490.716796875 811.2454223632812 486.2034606933594 C 811.2454223632812 480.50347900390625 806.938720703125 475.650146484375 798.325439453125 471.6434631347656 C 795.8587646484375 470.50347900390625 793.0887451171875 469.3501281738281 790.015380859375 468.1834716796875 C 786.9420776367188 467.0234680175781 783.7053833007812 465.4634704589844 780.305419921875 463.50347900390625 C 776.9120483398438 461.54345703125 773.8720703125 459.24346923828125 771.1854248046875 456.60345458984375 C 765.2120971679688 450.67681884765625 762.2254028320312 443.7034606933594 762.2254028320312 435.6834716796875 C 762.2254028320312 427.1634826660156 765.7120971679688 420.3268127441406 772.6854248046875 415.1734619140625 C 779.2053833007812 410.3468017578125 786.8854370117188 407.9334716796875 795.7254028320312 407.9334716796875 C 805.5654296875 407.9334716796875 813.6553955078125 410.073486328125 819.9954223632812 414.35345458984375 C 823.4554443359375 416.63348388671875 825.1854248046875 418.75347900390625 825.1854248046875 420.7134704589844 C 825.1854248046875 421.7601318359375 824.5687255859375 423.4468078613281 823.3353881835938 425.7734680175781 C 822.1087646484375 428.0934753417969 821.1187744140625 429.6634826660156 820.3654174804688 430.48345947265625 C 819.612060546875 431.31011962890625 818.9187622070312 431.7234802246094 818.285400390625 431.7234802246094 C 817.1453857421875 431.7234802246094 815.652099609375 431.1068115234375 813.805419921875 429.87347412109375 C 811.958740234375 428.64013671875 809.325439453125 427.29681396484375 805.9053955078125 425.8434753417969 C 802.4920654296875 424.38348388671875 799.2587280273438 423.6534729003906 796.2053833007812 423.6534729003906 C 793.152099609375 423.6534729003906 790.7020874023438 423.9034729003906 788.8554077148438 424.4034729003906 C 787.0087280273438 424.9034729003906 785.402099609375 425.65679931640625 784.035400390625 426.6634826660156 C 781.208740234375 428.803466796875 779.79541015625 431.9234619140625 779.79541015625 436.0234680175781 C 779.79541015625 441.95013427734375 783.85205078125 446.6434631347656 791.9653930664062 450.10345458984375 L 798.5953979492188 452.8434753417969 C 807.4820556640625 456.26348876953125 814.2254028320312 460.04681396484375 818.825439453125 464.1934814453125 C 825.1654052734375 469.9334716796875 828.3353881835938 476.9734802246094 828.3353881835938 485.3134765625 C 828.3353881835938 494.6068115234375 824.825439453125 502.1701354980469 817.805419921875 508.00347900390625 C 811.3320922851562 513.4301147460938 803.7420654296875 516.1434936523438 795.035400390625 516.1434936523438 C 783.8754272460938 516.1434936523438 774.3754272460938 513.8401489257812 766.535400390625 509.23345947265625 C 762.8887329101562 507.14013671875 761.0654296875 505.2834777832031 761.0654296875 503.6634826660156 ZM 861.0921630859375 424.13348388671875 C 857.9921875 424.13348388671875 855.348876953125 423.06011962890625 853.1621704101562 420.9134826660156 C 850.9755249023438 418.82012939453125 849.8822021484375 416.17681884765625 849.8822021484375 412.98345947265625 C 849.8822021484375 409.89013671875 850.9755249023438 407.2467956542969 853.1621704101562 405.053466796875 C 855.2554931640625 402.96014404296875 857.8988647460938 401.9134826660156 861.0921630859375 401.9134826660156 C 865.9655151367188 401.9134826660156 869.3822021484375 404.14678955078125 871.3421630859375 408.61346435546875 C 871.9354858398438 409.9334716796875 872.232177734375 411.39013671875 872.232177734375 412.98345947265625 C 872.232177734375 416.17681884765625 871.1388549804688 418.82012939453125 868.9522094726562 420.9134826660156 C 866.7655029296875 423.06011962890625 864.1455078125 424.13348388671875 861.0921630859375 424.13348388671875 M 869.0921630859375 495.63348388671875 C 869.0921630859375 498.8667907714844 870.1621704101562 500.48345947265625 872.3021850585938 500.48345947265625 C 873.0288696289062 500.48345947265625 873.848876953125 500.2801513671875 874.76220703125 499.87347412109375 C 876.5421752929688 499.1001281738281 877.7488403320312 498.7134704589844 878.3822021484375 498.7134704589844 C 879.3421630859375 498.7134704589844 880.1188354492188 499.37347412109375 880.712158203125 500.6934814453125 L 882.8321533203125 505.4734802246094 C 883.1921997070312 506.25347900390625 883.3721923828125 506.98345947265625 883.3721923828125 507.6634826660156 C 883.3721923828125 509.62347412109375 881.6854858398438 511.4468078613281 878.3121948242188 513.1334838867188 C 875.12548828125 514.7734985351562 871.97216796875 515.5934448242188 868.8521728515625 515.5934448242188 C 865.7255249023438 515.5934448242188 863.2288208007812 515.2534790039062 861.3621826171875 514.573486328125 C 859.4954833984375 513.8867797851562 857.9021606445312 512.746826171875 856.5821533203125 511.1534729003906 C 853.9354858398438 507.87347412109375 852.6121826171875 502.5401306152344 852.6121826171875 495.1534729003906 L 852.6121826171875 441.8334655761719 C 852.6121826171875 440.56011962890625 852.9788208007812 439.4901428222656 853.712158203125 438.62347412109375 C 854.4388427734375 437.7568054199219 855.3021850585938 437.323486328125 856.3021850585938 437.323486328125 L 865.462158203125 437.323486328125 C 866.5155029296875 437.323486328125 867.3822021484375 437.7568054199219 868.0621948242188 438.62347412109375 C 868.7488403320312 439.4901428222656 869.0921630859375 440.56011962890625 869.0921630859375 441.8334655761719 L 869.0921630859375 495.63348388671875 ZM 904.4346923828125 442.24346923828125 C 904.4346923828125 438.9634704589844 906.0046997070312 437.323486328125 909.1446533203125 437.323486328125 L 912.9046630859375 437.323486328125 C 915.4580078125 437.323486328125 917.1913452148438 438.2801513671875 918.1046752929688 440.1934814453125 C 919.3779907226562 442.92681884765625 920.4713134765625 446.52679443359375 921.3847045898438 450.99346923828125 C 925.4846801757812 443.5201416015625 931.5913696289062 438.73681640625 939.7046508789062 436.6434631347656 C 942.2579956054688 435.956787109375 945.43798828125 435.61346435546875 949.2446899414062 435.61346435546875 C 953.0513305664062 435.61346435546875 956.5713500976562 436.4234619140625 959.8046875 438.04345703125 C 963.0380249023438 439.6634826660156 965.59130859375 441.88348388671875 967.4646606445312 444.7034606933594 C 970.9246826171875 449.8568115234375 972.6546630859375 457.4468078613281 972.6546630859375 467.4734802246094 L 972.6546630859375 509.9234619140625 C 972.6546630859375 511.1968078613281 972.2446899414062 512.2667846679688 971.4246826171875 513.1334838867188 C 970.6046752929688 514.0001220703125 969.3980102539062 514.4334716796875 967.8046875 514.4334716796875 L 961.1046752929688 514.4334716796875 C 959.371337890625 514.4334716796875 958.0946655273438 514.0001220703125 957.274658203125 513.1334838867188 C 956.4546508789062 512.2667846679688 956.044677734375 511.1968078613281 956.044677734375 509.9234619140625 L 956.044677734375 467.4034729003906 C 956.044677734375 455.73681640625 951.7613525390625 449.9034729003906 943.1947021484375 449.9034729003906 C 938.1813354492188 449.9034729003906 933.601318359375 452.0001220703125 929.4546508789062 456.1934814453125 C 925.03466796875 460.7068176269531 922.8246459960938 465.9468078613281 922.8246459960938 471.9134826660156 L 922.8246459960938 509.9234619140625 C 922.8246459960938 511.1968078613281 922.4346923828125 512.2667846679688 921.6546630859375 513.1334838867188 C 920.88134765625 514.0001220703125 919.697998046875 514.4334716796875 918.1046752929688 514.4334716796875 L 911.064697265625 514.4334716796875 C 909.4713134765625 514.4334716796875 908.2646484375 514.0001220703125 907.4447021484375 513.1334838867188 C 906.6246948242188 512.2667846679688 906.2146606445312 511.1968078613281 906.2146606445312 509.9234619140625 L 906.2146606445312 467.9534606933594 C 906.2146606445312 458.79345703125 905.9180297851562 452.400146484375 905.3246459960938 448.7734680175781 C 904.7313232421875 445.1534729003906 904.4346923828125 442.976806640625 904.4346923828125 442.24346923828125 ZM 1004.7310180664062 397.54345703125 C 1004.7310180664062 396.31011962890625 1005.0843505859375 395.2834777832031 1005.791015625 394.4634704589844 C 1006.4976806640625 393.6434631347656 1007.3510131835938 393.23345947265625 1008.3510131835938 393.23345947265625 L 1017.7210083007812 393.23345947265625 C 1018.7677001953125 393.23345947265625 1019.6310424804688 393.6434631347656 1020.31103515625 394.4634704589844 C 1020.9976806640625 395.2834777832031 1021.3410034179688 396.31011962890625 1021.3410034179688 397.54345703125 L 1021.3410034179688 449.2834777832031 C 1025.260986328125 442.630126953125 1031.0277099609375 438.3701477050781 1038.6409912109375 436.50347900390625 C 1041.0543212890625 435.91015625 1044.11767578125 435.61346435546875 1047.8310546875 435.61346435546875 C 1051.5443115234375 435.61346435546875 1055.0177001953125 436.4234619140625 1058.2509765625 438.04345703125 C 1061.490966796875 439.6634826660156 1064.067626953125 441.88348388671875 1065.98095703125 444.7034606933594 C 1069.4010009765625 449.8568115234375 1071.1109619140625 457.4468078613281 1071.1109619140625 467.4734802246094 L 1071.1109619140625 509.9234619140625 C 1071.1109619140625 511.2901306152344 1070.7010498046875 512.3834838867188 1069.8809814453125 513.2034912109375 C 1069.0543212890625 514.0234985351562 1067.8443603515625 514.4334716796875 1066.2509765625 514.4334716796875 L 1059.551025390625 514.4334716796875 C 1057.8243408203125 514.4334716796875 1056.551025390625 514.0001220703125 1055.73095703125 513.1334838867188 C 1054.904296875 512.2667846679688 1054.490966796875 511.1968078613281 1054.490966796875 509.9234619140625 L 1054.490966796875 467.4034729003906 C 1054.490966796875 455.73681640625 1050.2076416015625 449.9034729003906 1041.6409912109375 449.9034729003906 C 1036.8609619140625 449.9034729003906 1032.35107421875 452.0001220703125 1028.1109619140625 456.1934814453125 C 1023.59765625 460.7467956542969 1021.3410034179688 465.98681640625 1021.3410034179688 471.9134826660156 L 1021.3410034179688 509.9234619140625 C 1021.3410034179688 511.1968078613281 1020.954345703125 512.2667846679688 1020.1810302734375 513.1334838867188 C 1019.4076538085938 514.0001220703125 1018.1543579101562 514.4334716796875 1016.4210205078125 514.4334716796875 L 1008.9710083007812 514.4334716796875 C 1007.6443481445312 514.4334716796875 1006.607666015625 514.0001220703125 1005.8610229492188 513.1334838867188 C 1005.107666015625 512.2667846679688 1004.7310180664062 511.1968078613281 1004.7310180664062 509.9234619140625 L 1004.7310180664062 397.54345703125 ZM 1162.92724609375 510.8134765625 C 1162.92724609375 513.226806640625 1161.743896484375 514.4334716796875 1159.3773193359375 514.4334716796875 L 1152.7373046875 514.4334716796875 C 1150.9639892578125 514.4334716796875 1149.8939208984375 514.0801391601562 1149.52734375 513.3734741210938 C 1149.16064453125 512.6668090820312 1148.957275390625 512.0301513671875 1148.917236328125 511.4634704589844 C 1148.87060546875 510.89013671875 1148.77734375 510.1934814453125 1148.6373291015625 509.37347412109375 C 1148.364013671875 507.14013671875 1147.977294921875 504.726806640625 1147.477294921875 502.13348388671875 C 1143.9239501953125 508.64678955078125 1138.340576171875 512.9534912109375 1130.727294921875 515.053466796875 C 1128.0406494140625 515.7801513671875 1125.08056640625 516.1434936523438 1121.8472900390625 516.1434936523438 C 1118.6072998046875 516.1434936523438 1115.37060546875 515.6068115234375 1112.1373291015625 514.533447265625 C 1108.9039306640625 513.466796875 1106.033935546875 511.88348388671875 1103.52734375 509.7834777832031 C 1097.8739013671875 505.04345703125 1095.0472412109375 498.823486328125 1095.0472412109375 491.12347412109375 C 1095.0472412109375 482.69012451171875 1098.1473388671875 476.2401428222656 1104.3472900390625 471.7734680175781 C 1109.447265625 468.1734619140625 1116.00732421875 466.37347412109375 1124.02734375 466.37347412109375 C 1132.0472412109375 466.37347412109375 1138.8372802734375 468.72015380859375 1144.3973388671875 473.4134826660156 C 1144.5372314453125 471.8668212890625 1144.6072998046875 469.9301452636719 1144.6072998046875 467.60345458984375 C 1144.6072998046875 465.2834777832031 1144.150634765625 462.96014404296875 1143.2373046875 460.63348388671875 C 1142.33056640625 458.3067932128906 1141.033935546875 456.3701477050781 1139.3472900390625 454.823486328125 C 1135.880615234375 451.7701416015625 1131.0472412109375 450.24346923828125 1124.8472900390625 450.24346923828125 C 1119.2872314453125 450.24346923828125 1113.6373291015625 451.7701416015625 1107.8973388671875 454.823486328125 C 1106.803955078125 455.41680908203125 1105.8472900390625 455.7134704589844 1105.02734375 455.7134704589844 C 1103.7939453125 455.7134704589844 1102.610595703125 454.5068054199219 1101.477294921875 452.0934753417969 C 1100.243896484375 449.6268005371094 1099.6273193359375 447.8468017578125 1099.6273193359375 446.75347900390625 C 1099.6273193359375 444.75347900390625 1101.130615234375 442.8168029785156 1104.1373291015625 440.9434814453125 C 1109.8773193359375 437.39013671875 1117.5572509765625 435.61346435546875 1127.17724609375 435.61346435546875 C 1135.9239501953125 435.61346435546875 1143.170654296875 438.0068054199219 1148.917236328125 442.79345703125 C 1155.7039794921875 448.5334777832031 1159.0972900390625 456.64678955078125 1159.0972900390625 467.13348388671875 C 1159.0972900390625 471.7801513671875 1158.3472900390625 477.63348388671875 1156.8472900390625 484.6934814453125 C 1160.7205810546875 495.726806640625 1162.747314453125 504.4334716796875 1162.92724609375 510.8134765625 M 1117.1273193359375 481.79345703125 C 1117.1273193359375 481.79345703125 1116.66064453125 482.14013671875 1115.727294921875 482.8334655761719 C 1114.7939453125 483.52679443359375 1113.92724609375 484.5567932128906 1113.1273193359375 485.9234619140625 C 1112.3272705078125 487.2901306152344 1111.92724609375 488.89678955078125 1111.92724609375 490.74346923828125 C 1111.92724609375 492.59014892578125 1112.2606201171875 494.23345947265625 1112.92724609375 495.6734619140625 C 1113.5872802734375 497.1068115234375 1114.50732421875 498.3001403808594 1115.687255859375 499.25347900390625 C 1118.1939697265625 501.2134704589844 1121.0106201171875 502.1934814453125 1124.1373291015625 502.1934814453125 C 1127.25732421875 502.1934814453125 1129.8206787109375 501.83013916015625 1131.8272705078125 501.1034851074219 C 1133.8272705078125 500.3768005371094 1135.5572509765625 499.4434814453125 1137.017333984375 498.303466796875 C 1140.1639404296875 495.8434753417969 1141.7373046875 493.24346923828125 1141.7373046875 490.50347900390625 C 1141.4639892578125 487.09014892578125 1139.5706787109375 484.4034729003906 1136.0572509765625 482.4434814453125 C 1132.917236328125 480.6168212890625 1129.2039794921875 479.7034606933594 1124.917236328125 479.7034606933594 C 1121.590576171875 479.7034606933594 1118.993896484375 480.400146484375 1117.1273193359375 481.79345703125 Z" transform="matrix(1, 0, 0, 1, 0, 0)" style="fill: rgb(237, 201, 19); white-space: pre; color: rgb(51, 51, 51);"/></svg>